SplineFontDB: 3.2
FontName: Untitled1
FullName: Untitled1
FamilyName: Untitled1
Weight: Regular
Copyright: Copyright (c) 2023, neilb
UComments: "2023-2-8: Created with FontForge (http://fontforge.org)"
Version: 001.000
ItalicAngle: 0
UnderlinePosition: -100
UnderlineWidth: 50
Ascent: 800
Descent: 200
InvalidEm: 0
LayerCount: 2
Layer: 0 0 "Back" 1
Layer: 1 0 "Fore" 0
XUID: [1021 709 80515229 13340]
StyleMap: 0x0000
FSType: 0
OS2Version: 0
OS2_WeightWidthSlopeOnly: 0
OS2_UseTypoMetrics: 1
CreationTime: 1675857821
ModificationTime: 1675922574
OS2TypoAscent: 0
OS2TypoAOffset: 1
OS2TypoDescent: 0
OS2TypoDOffset: 1
OS2TypoLinegap: 90
OS2WinAscent: 0
OS2WinAOffset: 1
OS2WinDescent: 0
OS2WinDOffset: 1
HheadAscent: 0
HheadAOffset: 1
HheadDescent: 0
HheadDOffset: 1
OS2Vendor: 'PfEd'
DEI: 91125
Encoding: UnicodeFull
UnicodeInterp: none
NameList: AGL For New Fonts
DisplaySize: -48
AntiAlias: 1
FitToEm: 1
WinInfo: 58944 16 14
BeginChars: 1114123 69

StartChar: .notdef
Encoding: 1114112 -1 0
Width: 0
VWidth: 0
Flags: H
LayerCount: 2
Fore
SplineSet
152 862 m 2
 673 862 l 2
 693 862 710 845 710 825 c 2
 710 37 l 2
 710 17 693 0 673 0 c 2
 152 0 l 2
 132 0 115 17 115 37 c 2
 115 825 l 2
 115 845 132 862 152 862 c 2
210 788 m 1
 413 482 l 1
 615 788 l 1
 210 788 l 1
189 718 m 1
 189 144 l 1
 379 431 l 1
 189 718 l 1
636 718 m 1
 446 431 l 1
 636 144 l 1
 636 718 l 1
413 380 m 1
 210 74 l 1
 615 74 l 1
 413 380 l 1
EndSplineSet
Validated: 1
EndChar

StartChar: age
Encoding: 58995 58995 1
Width: 1000
Flags: H
LayerCount: 2
Fore
SplineSet
235 475 m 0
 235 495 250 512 272 512 c 0
 289 512 304 501 308 485 c 0
 320 440 342 408 369 385 c 1
 374 420 384 446 398 467 c 0
 422 501 460 512 486 512 c 0
 553 512 608 458 608 388 c 0
 608 318 553 264 486 264 c 0
 471 264 456 266 440 269 c 1
 455 144 553 79 671 62 c 0
 689 59 703 44 703 25 c 0
 703 4 686 -12 666 -12 c 0
 664 -12 663 -12 661 -12 c 0
 587 -2 513 27 457 79 c 0
 402 130 366 205 364 299 c 1
 306 332 258 384 236 465 c 0
 235 468 235 472 235 475 c 0
534 388 m 0
 534 419 513 438 486 438 c 0
 485 438 485 438 484 438 c 0
 472 438 468 438 459 425 c 0
 452 414 442 390 439 346 c 1
 457 340 473 338 486 338 c 0
 512 338 534 357 534 388 c 0
EndSplineSet
Validated: 1
EndChar

StartChar: age_roar
Encoding: 1114113 -1 2
Width: 0
VWidth: 0
Flags: H
LayerCount: 2
Fore
SplineSet
588 475 m 0
 588 509 620 514 655 514 c 0
 800 514 899 405 899 250 c 0
 899 83 788 -14 626 -14 c 0
 611 -14 595 -14 580 -12 c 0
 487 -2 402 25 340 78 c 0
 279 129 242 205 240 299 c 1
 182 332 134 384 112 465 c 0
 111 468 111 472 111 475 c 0
 111 495 126 512 148 512 c 0
 165 512 180 501 184 485 c 0
 196 440 218 408 245 385 c 1
 250 420 261 446 275 467 c 0
 299 501 336 512 362 512 c 0
 429 512 484 458 484 388 c 0
 484 318 429 264 362 264 c 0
 347 264 332 266 316 269 c 1
 323 209 349 167 388 134 c 0
 435 95 504 71 588 62 c 0
 601 61 613 60 625 60 c 0
 677 60 722 71 756 95 c 0
 798 124 826 170 826 250 c 0
 826 330 797 377 760 406 c 0
 729 430 690 440 654 440 c 0
 644 440 635 438 625 438 c 0
 605 438 588 454 588 475 c 0
411 388 m 0
 411 419 389 438 362 438 c 0
 361 438 362 438 361 438 c 0
 349 438 344 438 335 425 c 0
 328 414 318 390 315 346 c 1
 333 340 349 338 362 338 c 0
 388 338 411 357 411 388 c 0
EndSplineSet
Validated: 1
EndChar

StartChar: ah
Encoding: 58998 58998 3
Width: 1000
Flags: H
LayerCount: 2
Fore
SplineSet
655 512 m 0
 675 512 692 495 692 475 c 0
 692 455 675 438 655 438 c 0
 622 438 590 425 563 395 c 0
 536 365 513 316 504 245 c 0
 493 163 465 99 425 55 c 0
 385 11 333 -12 279 -12 c 0
 259 -12 242 5 242 25 c 0
 242 45 259 62 279 62 c 0
 312 62 344 75 371 105 c 0
 398 135 421 184 430 255 c 0
 441 337 469 401 509 445 c 0
 549 489 601 512 655 512 c 0
EndSplineSet
Validated: 1
EndChar

StartChar: ah_roar
Encoding: 1114114 -1 4
Width: 0
VWidth: 0
Flags: H
LayerCount: 2
Fore
SplineSet
620 62 m 0
 630 62 639 60 649 60 c 0
 685 60 724 70 755 94 c 0
 792 123 820 170 820 250 c 0
 820 330 793 374 751 402 c 0
 714 427 661 439 603 439 c 0
 533 439 483 423 448 390 c 0
 417 361 394 316 385 245 c 0
 374 163 347 99 307 55 c 0
 267 11 214 -12 160 -12 c 0
 140 -12 123 5 123 25 c 0
 123 45 140 62 160 62 c 0
 193 62 225 75 252 105 c 0
 279 135 303 184 312 255 c 0
 323 337 350 401 397 444 c 0
 450 493 518 513 605 513 c 0
 673 513 739 499 793 463 c 0
 854 422 894 348 894 250 c 0
 894 95 795 -14 650 -14 c 0
 615 -14 583 -9 583 25 c 0
 583 46 600 62 620 62 c 0
EndSplineSet
Validated: 1
EndChar

StartChar: axe
Encoding: 58987 58987 5
Width: 1000
Flags: H
LayerCount: 2
Fore
SplineSet
216 837 m 0
 216 856 231 874 253 874 c 0
 267 874 280 866 286 854 c 2
 540 358 l 1
 625 495 l 2
 632 505 643 512 656 512 c 0
 678 512 693 495 693 475 c 0
 693 468 692 461 688 455 c 2
 579 281 l 1
 701 42 l 2
 704 37 706 31 706 25 c 0
 706 6 691 -12 669 -12 c 0
 655 -12 642 -4 636 8 c 2
 533 208 l 1
 407 5 l 2
 400 -5 389 -12 376 -12 c 0
 355 -12 339 5 339 25 c 0
 339 32 340 39 344 45 c 2
 494 285 l 1
 220 820 l 2
 217 825 216 831 216 837 c 0
EndSplineSet
Validated: 1
EndChar

StartChar: bob
Encoding: 58961 58961 6
Width: 1000
Flags: H
LayerCount: 2
Fore
SplineSet
634 -12 m 0
 622 -12 610 -10 599 -10 c 1
 599 -337 l 2
 599 -357 582 -374 562 -374 c 0
 558 -374 553 -373 549 -372 c 0
 419 -325 337 -220 337 -101 c 0
 337 -43 371 7 424 34 c 0
 453 48 486 57 525 61 c 1
 525 475 l 2
 525 495 542 512 562 512 c 0
 582 512 599 495 599 475 c 2
 599 64 l 1
 611 64 623 63 636 62 c 0
 655 61 671 44 671 25 c 0
 671 4 654 -12 634 -12 c 0
525 -13 m 1
 496 -17 474 -24 457 -32 c 0
 423 -49 411 -68 411 -101 c 0
 411 -173 450 -238 525 -280 c 1
 525 -13 l 1
EndSplineSet
Validated: 1
EndChar

StartChar: church
Encoding: 58974 58974 7
Width: 1000
Flags: H
LayerCount: 2
Fore
SplineSet
263 438 m 0
 243 438 226 453 226 475 c 0
 226 493 239 508 256 511 c 0
 365 531 493 653 645 859 c 0
 652 868 662 874 674 874 c 0
 694 874 711 857 711 837 c 0
 711 829 709 822 705 816 c 0
 509 538 431 356 431 231 c 0
 431 134 454 56 576 56 c 0
 617 56 632 57 682 62 c 0
 683 62 685 62 686 62 c 0
 706 62 723 46 723 25 c 0
 723 6 709 -10 690 -12 c 0
 638 -17 618 -18 576 -18 c 0
 474 -18 412 33 384 90 c 0
 359 142 357 195 357 224 c 0
 357 313 381 403 437 519 c 1
 382 477 326 449 269 439 c 0
 267 439 265 438 263 438 c 0
EndSplineSet
Validated: 1
EndChar

StartChar: deed
Encoding: 58963 58963 8
Width: 1000
Flags: H
LayerCount: 2
Fore
SplineSet
690 62 m 0
 709 62 727 47 727 25 c 0
 727 10 718 -2 706 -8 c 0
 598 -60 507 -194 492 -341 c 0
 490 -360 474 -374 455 -374 c 0
 435 -374 418 -357 418 -337 c 2
 418 475 l 2
 418 495 435 512 455 512 c 0
 475 512 492 495 492 475 c 2
 492 -113 l 1
 537 -38 600 23 674 58 c 0
 679 60 684 62 690 62 c 0
EndSplineSet
Validated: 1
EndChar

StartChar: deed_ado_roar
Encoding: 1114115 -1 9
Width: 0
VWidth: 0
Flags: H
LayerCount: 2
Fore
SplineSet
840 62 m 0
 850 62 859 60 869 60 c 0
 905 60 944 70 975 94 c 0
 1012 123 1040 170 1040 250 c 0
 1040 330 1013 374 971 403 c 0
 936 427 887 439 833 439 c 0
 823 439 813 439 802 438 c 0
 657 422 534 296 431 134 c 0
 328 -28 246 -221 171 -355 c 0
 165 -366 152 -374 138 -374 c 0
 118 -374 101 -357 101 -337 c 2
 101 475 l 2
 101 495 118 512 138 512 c 0
 158 512 175 495 175 475 c 2
 175 -186 l 1
 231 -74 294 56 369 174 c 0
 477 344 612 493 794 512 c 0
 807 513 820 513 834 513 c 0
 999 513 1114 420 1114 250 c 0
 1114 95 1015 -14 870 -14 c 0
 835 -14 803 -9 803 25 c 0
 803 46 820 62 840 62 c 0
EndSplineSet
Validated: 1
EndChar

StartChar: eat
Encoding: 58993 58993 10
Width: 1000
Flags: H
LayerCount: 2
Fore
SplineSet
549 512 m 0
 570 512 586 495 586 475 c 2
 586 25 l 2
 586 5 569 -12 549 -12 c 0
 529 -12 513 5 513 25 c 2
 513 319 l 1
 356 8 l 2
 350 -4 337 -12 323 -12 c 0
 301 -12 286 6 286 25 c 0
 286 31 288 37 290 42 c 2
 516 492 l 2
 522 503 533 512 549 512 c 0
EndSplineSet
Validated: 1
EndChar

StartChar: ed
Encoding: 58994 58994 11
Width: 1000
Flags: H
LayerCount: 2
Fore
SplineSet
668 25 m 0
 668 4 651 -12 631 -12 c 0
 629 -12 628 -12 626 -12 c 0
 548 -1 462 30 398 105 c 0
 334 180 294 297 294 475 c 0
 294 495 311 512 331 512 c 0
 351 512 368 495 368 475 c 0
 368 308 404 211 454 153 c 0
 504 95 568 72 636 62 c 0
 654 59 668 44 668 25 c 0
EndSplineSet
Validated: 1
EndChar

StartChar: ed_roar
Encoding: 1114116 -1 12
Width: 0
VWidth: 0
Flags: H
LayerCount: 2
Fore
SplineSet
565 475 m 0
 565 509 596 514 631 514 c 0
 776 514 876 405 876 250 c 0
 876 80 761 -13 596 -13 c 0
 583 -13 570 -13 557 -12 c 0
 484 -6 391 24 314 99 c 0
 237 174 181 295 181 475 c 0
 181 495 198 512 218 512 c 0
 238 512 255 495 255 475 c 0
 255 310 304 212 366 151 c 0
 428 90 505 67 563 62 c 0
 574 61 585 60 595 60 c 0
 649 60 698 73 733 97 c 0
 775 126 802 170 802 250 c 0
 802 330 773 377 736 406 c 0
 705 430 667 440 631 440 c 0
 621 440 611 438 601 438 c 0
 581 438 565 454 565 475 c 0
EndSplineSet
Validated: 1
EndChar

StartChar: eight
Encoding: 56 56 13
Width: 1000
Flags: H
LayerCount: 2
Fore
SplineSet
378 480 m 1
 309 517 240 573 240 672 c 0
 240 723 255 775 294 814 c 0
 333 853 393 874 471 874 c 0
 549 874 606 851 642 811 c 0
 678 771 688 719 688 668 c 0
 688 571 620 516 551 480 c 1
 642 434 728 364 728 230 c 0
 728 106 629 -12 464 -12 c 0
 299 -12 200 106 200 230 c 0
 200 364 287 434 378 480 c 1
471 800 m 0
 406 800 368 783 346 761 c 0
 324 739 314 708 314 672 c 0
 314 627 331 602 364 576 c 0
 390 556 426 538 465 520 c 1
 504 538 539 556 564 575 c 0
 597 600 615 624 615 668 c 0
 615 708 606 740 587 762 c 0
 568 784 536 800 471 800 c 0
465 439 m 1
 412 415 361 390 327 358 c 0
 294 327 273 291 273 230 c 0
 273 142 331 62 464 62 c 0
 597 62 655 142 655 230 c 0
 655 291 634 327 601 358 c 0
 567 390 517 415 465 439 c 1
EndSplineSet
Validated: 1
EndChar

StartChar: emdash
Encoding: 8212 8212 14
Width: 1000
Flags: H
LayerCount: 2
Fore
SplineSet
80 412 m 2
 524 412 l 2
 544 412 561 395 561 375 c 0
 561 355 544 338 524 338 c 2
 80 338 l 2
 60 338 43 355 43 375 c 0
 43 395 60 412 80 412 c 2
EndSplineSet
Validated: 1
EndChar

StartChar: exam
Encoding: 58988 58988 15
Width: 1000
Flags: H
LayerCount: 2
Fore
SplineSet
275 475 m 0
 275 494 290 512 312 512 c 0
 326 512 338 504 344 492 c 2
 436 314 l 1
 549 495 l 2
 556 505 567 512 580 512 c 0
 602 512 617 495 617 475 c 0
 617 468 615 461 611 455 c 2
 475 237 l 1
 760 -320 l 2
 763 -325 764 -331 764 -337 c 0
 764 -356 749 -374 727 -374 c 0
 713 -374 700 -366 694 -354 c 2
 429 164 l 1
 330 5 l 2
 323 -5 312 -12 299 -12 c 0
 278 -12 262 5 262 25 c 0
 262 32 264 39 268 45 c 2
 390 241 l 1
 279 458 l 2
 276 463 275 469 275 475 c 0
EndSplineSet
Validated: 1
EndChar

StartChar: fife
Encoding: 58968 58968 16
Width: 1000
Flags: H
LayerCount: 2
Fore
SplineSet
407 837 m 0
 407 858 424 874 444 874 c 0
 447 874 450 874 453 873 c 0
 605 832 669 694 679 511 c 1
 688 511 697 512 706 512 c 0
 726 512 743 495 743 475 c 0
 743 455 726 438 706 438 c 0
 697 438 689 437 680 437 c 1
 678 324 662 217 629 134 c 0
 602 65 554 -12 465 -12 c 0
 371 -12 320 86 320 182 c 0
 320 297 359 387 429 440 c 0
 476 476 535 497 605 506 c 1
 597 657 555 770 434 802 c 0
 418 806 407 820 407 837 c 0
393 183 m 0
 393 128 416 62 465 62 c 0
 483 62 497 69 514 85 c 0
 531 101 547 128 561 162 c 0
 588 230 604 328 606 431 c 1
 550 422 506 406 474 381 c 0
 425 343 393 282 393 183 c 0
EndSplineSet
Validated: 1
EndChar

StartChar: five
Encoding: 53 53 17
Width: 1000
Flags: H
LayerCount: 2
Fore
SplineSet
243 105 m 0
 243 125 259 142 280 142 c 0
 291 142 301 137 308 129 c 0
 341 89 379 62 469 62 c 0
 532 62 584 79 620 113 c 0
 656 147 679 197 679 273 c 0
 679 349 657 400 624 433 c 0
 591 466 545 483 486 483 c 0
 411 483 345 465 312 442 c 0
 306 438 299 436 291 436 c 0
 271 436 254 453 254 473 c 0
 254 474 254 476 254 477 c 2
 293 830 l 2
 295 848 311 863 330 863 c 2
 692 863 l 2
 712 863 729 846 729 826 c 0
 729 806 712 789 692 789 c 2
 363 789 l 1
 335 533 l 1
 371 545 422 557 486 557 c 0
 559 557 627 534 676 485 c 0
 725 436 753 364 753 273 c 0
 753 181 722 108 670 59 c 0
 618 10 546 -12 469 -12 c 0
 399 -12 349 4 314 25 c 0
 279 46 259 72 251 81 c 0
 246 87 243 96 243 105 c 0
EndSplineSet
Validated: 1
EndChar

StartChar: four
Encoding: 52 52 18
Width: 1000
Flags: H
LayerCount: 2
Fore
SplineSet
409 874 m 0
 431 874 446 857 446 837 c 0
 446 834 446 831 445 828 c 2
 318 317 l 1
 573 317 l 1
 573 686 l 2
 573 706 590 723 610 723 c 0
 630 723 646 706 646 686 c 2
 646 317 l 1
 733 317 l 2
 753 317 770 300 770 280 c 0
 770 260 753 243 733 243 c 2
 646 243 l 1
 646 25 l 2
 646 5 630 -12 610 -12 c 0
 590 -12 573 5 573 25 c 2
 573 243 l 1
 271 243 l 2
 251 243 234 260 234 280 c 0
 234 283 234 286 235 289 c 2
 373 846 l 2
 377 862 391 874 409 874 c 0
EndSplineSet
Validated: 1
EndChar

StartChar: gig
Encoding: 58965 58965 19
Width: 1000
Flags: H
LayerCount: 2
Fore
SplineSet
370 263 m 0
 370 392 439 512 569 512 c 0
 601 512 683 508 683 461 c 0
 683 439 665 425 646 425 c 0
 641 425 636 426 631 428 c 0
 610 437 593 438 569 438 c 0
 482 438 444 353 444 263 c 0
 444 176 448 138 535 51 c 0
 539 47 543 42 547 38 c 1
 569 48 595 56 623 61 c 0
 625 61 628 62 630 62 c 0
 650 62 666 47 666 25 c 0
 666 7 653 -8 636 -11 c 0
 622 -14 610 -17 598 -21 c 1
 614 -44 626 -66 634 -86 c 0
 650 -126 651 -162 651 -193 c 0
 651 -298 607 -374 523 -374 c 0
 440 -374 395 -297 395 -193 c 0
 395 -147 408 -93 444 -44 c 0
 455 -29 468 -15 483 -2 c 1
 387 94 370 170 370 263 c 0
532 -57 m 1
 521 -66 511 -76 503 -87 c 0
 478 -121 469 -161 469 -193 c 0
 469 -251 483 -277 494 -288 c 0
 505 -299 516 -300 523 -300 c 0
 531 -300 542 -299 553 -288 c 0
 564 -277 577 -252 577 -193 c 0
 577 -132 563 -98 532 -57 c 1
EndSplineSet
Validated: 1
EndChar

StartChar: haha
Encoding: 58978 58978 20
Width: 1000
Flags: H
LayerCount: 2
Fore
SplineSet
659 874 m 0
 679 874 696 857 696 837 c 0
 696 817 679 800 659 800 c 0
 608 800 552 783 508 742 c 0
 464 701 431 637 431 534 c 2
 431 25 l 2
 431 5 414 -12 394 -12 c 0
 374 -12 357 5 357 25 c 2
 357 534 l 2
 357 653 398 741 457 796 c 0
 516 851 591 874 659 874 c 0
EndSplineSet
Validated: 1
EndChar

StartChar: if
Encoding: 58992 58992 21
Width: 1000
Flags: H
LayerCount: 2
Fore
SplineSet
475 512 m 0
 495 512 512 495 512 475 c 2
 512 25 l 2
 512 5 495 -12 475 -12 c 0
 455 -12 438 5 438 25 c 2
 438 475 l 2
 438 495 455 512 475 512 c 0
EndSplineSet
Validated: 1
EndChar

StartChar: if_ado
Encoding: 1114117 -1 22
Width: 0
VWidth: 0
Flags: H
LayerCount: 2
Fore
SplineSet
682 512 m 0
 702 512 719 496 719 475 c 0
 719 456 705 441 687 438 c 0
 562 420 405 280 334 15 c 0
 330 -1 315 -12 298 -12 c 0
 278 -12 261 5 261 25 c 2
 261 475 l 2
 261 495 278 512 298 512 c 0
 318 512 335 495 335 475 c 2
 335 224 l 1
 423 393 551 494 677 512 c 0
 679 512 680 512 682 512 c 0
EndSplineSet
Validated: 1
EndChar

StartChar: if_ado_roar
Encoding: 1114118 -1 23
Width: 0
VWidth: 0
Flags: H
LayerCount: 2
Fore
SplineSet
594 62 m 0
 604 62 613 60 623 60 c 0
 659 60 698 70 729 94 c 0
 766 123 794 170 794 250 c 0
 794 330 767 376 725 405 c 0
 691 429 645 440 594 440 c 0
 582 440 569 439 556 438 c 0
 386 420 234 280 163 15 c 0
 159 -1 144 -12 127 -12 c 0
 107 -12 91 5 91 25 c 2
 91 475 l 2
 91 495 107 512 127 512 c 0
 147 512 164 495 164 475 c 2
 164 222 l 1
 255 393 394 496 549 512 c 0
 564 514 580 514 595 514 c 0
 757 514 868 417 868 250 c 0
 868 95 769 -14 624 -14 c 0
 589 -14 557 -9 557 25 c 0
 557 46 574 62 594 62 c 0
EndSplineSet
Validated: 1
EndChar

StartChar: inkling
Encoding: 58980 58980 24
Width: 1000
Flags: H
LayerCount: 2
Fore
SplineSet
456 192 m 1
 394 309 347 466 347 602 c 0
 347 692 364 794 417 842 c 0
 438 861 467 874 499 874 c 0
 568 874 608 823 627 772 c 0
 647 719 652 657 652 602 c 0
 652 466 604 309 542 192 c 1
 587 120 639 71 677 61 c 0
 693 57 705 42 705 25 c 0
 705 3 688 -12 668 -12 c 0
 665 -12 661 -12 658 -11 c 0
 596 6 544 54 499 120 c 1
 454 54 402 6 340 -11 c 0
 337 -12 334 -12 331 -12 c 0
 311 -12 294 3 294 25 c 0
 294 42 305 57 321 61 c 0
 359 71 411 120 456 192 c 1
499 800 m 0
 484 800 475 797 466 788 c 0
 430 755 420 670 420 602 c 0
 420 498 452 375 499 272 c 1
 546 375 578 498 578 602 c 0
 578 670 568 755 532 788 c 0
 523 797 514 800 499 800 c 0
EndSplineSet
Validated: 1
EndChar

StartChar: kick
Encoding: 58964 58964 25
Width: 1000
Flags: H
LayerCount: 2
Fore
SplineSet
342 837 m 0
 342 859 360 874 379 874 c 0
 385 874 390 873 395 871 c 0
 553 794 602 621 611 396 c 0
 611 396 611 396 611 395 c 0
 611 375 594 358 574 358 c 0
 561 358 548 365 542 376 c 0
 531 394 521 410 510 421 c 0
 499 432 488 438 465 438 c 0
 423 438 411 424 398 396 c 0
 385 368 380 324 380 281 c 0
 380 250 393 190 422 143 c 0
 451 96 493 62 561 62 c 0
 581 62 597 45 597 25 c 0
 597 5 581 -12 561 -12 c 0
 404 -12 306 142 306 281 c 0
 306 328 310 380 331 427 c 0
 352 474 400 512 465 512 c 0
 489 512 511 506 529 497 c 1
 512 643 469 752 362 804 c 0
 350 810 342 822 342 837 c 0
EndSplineSet
Validated: 1
EndChar

StartChar: loch
Encoding: 58985 58985 26
Width: 1000
Flags: H
LayerCount: 2
Fore
SplineSet
639 -12 m 0
 619 -12 602 5 602 25 c 0
 602 35 606 44 613 51 c 0
 655 93 676 148 676 256 c 0
 676 349 623 423 535 436 c 1
 535 25 l 2
 535 5 518 -12 498 -12 c 0
 406 -12 339 26 300 80 c 0
 261 134 248 201 248 262 c 0
 248 326 269 389 312 436 c 0
 348 475 399 501 461 509 c 1
 461 837 l 2
 461 857 478 874 498 874 c 0
 518 874 535 857 535 837 c 2
 535 510 l 1
 601 502 654 472 690 430 c 0
 731 381 750 318 750 256 c 0
 750 138 722 56 665 -1 c 0
 658 -8 649 -12 639 -12 c 0
461 435 m 1
 375 421 322 356 322 262 c 0
 322 159 363 78 461 64 c 1
 461 435 l 1
EndSplineSet
Validated: 1
EndChar

StartChar: loll
Encoding: 58983 58983 27
Width: 1000
Flags: H
LayerCount: 2
Fore
SplineSet
642 512 m 0
 663 512 679 495 679 475 c 0
 679 474 679 472 679 471 c 0
 673 418 657 362 618 316 c 0
 597 291 569 269 535 252 c 1
 561 228 579 192 579 149 c 0
 579 36 471 -14 353 -14 c 0
 337 -14 321 -14 304 -12 c 0
 285 -10 270 6 270 25 c 0
 270 46 287 62 307 62 c 0
 322 62 336 60 350 60 c 0
 393 60 431 67 457 79 c 0
 491 95 506 113 506 149 c 0
 506 196 471 218 426 218 c 0
 406 218 390 235 390 255 c 0
 390 273 402 288 419 291 c 0
 491 305 534 332 561 364 c 0
 588 396 601 436 605 479 c 0
 607 498 623 512 642 512 c 0
EndSplineSet
Validated: 1
EndChar

StartChar: mime
Encoding: 58981 58981 28
Width: 1000
Flags: H
LayerCount: 2
Fore
SplineSet
612 512 m 0
 632 512 649 497 649 475 c 0
 649 459 638 445 624 440 c 0
 493 393 436 272 423 88 c 1
 440 90 456 90 472 90 c 0
 599 90 682 25 682 -103 c 0
 682 -211 628 -314 532 -369 c 0
 527 -372 521 -374 514 -374 c 0
 504 -374 495 -370 488 -363 c 0
 421 -296 348 -173 347 -1 c 1
 335 -4 322 -6 311 -10 c 0
 308 -11 304 -12 300 -12 c 0
 281 -12 263 3 263 25 c 0
 263 42 274 55 289 60 c 0
 308 66 327 71 348 76 c 1
 360 299 438 452 599 510 c 0
 603 511 608 512 612 512 c 0
608 -102 m 0
 608 -17 563 16 477 16 c 0
 459 16 440 14 420 12 c 0
 420 9 420 7 420 4 c 0
 420 -131 471 -230 520 -289 c 1
 576 -245 608 -175 608 -102 c 0
EndSplineSet
Validated: 1
EndChar

StartChar: mime_roar
Encoding: 1114119 -1 29
Width: 0
VWidth: 0
Flags: H
LayerCount: 2
Fore
SplineSet
154 -12 m 0
 135 -12 118 3 118 25 c 0
 118 42 128 55 143 60 c 0
 162 66 184 71 205 76 c 1
 229 335 380 485 542 511 c 0
 569 515 594 518 621 518 c 0
 790 518 903 417 903 250 c 0
 903 95 803 -14 658 -14 c 0
 623 -14 591 -9 591 25 c 0
 591 46 608 62 628 62 c 0
 638 62 647 60 657 60 c 0
 693 60 732 70 763 94 c 0
 800 123 829 170 829 250 c 0
 829 330 801 378 755 409 c 0
 721 431 675 444 620 444 c 0
 599 444 576 443 553 439 c 0
 431 420 306 309 280 88 c 1
 296 90 312 90 327 90 c 0
 454 90 536 25 536 -103 c 0
 536 -211 483 -314 387 -369 c 0
 382 -372 376 -374 369 -374 c 0
 359 -374 349 -370 342 -363 c 0
 275 -296 202 -173 201 -1 c 1
 189 -4 177 -6 166 -10 c 0
 163 -11 158 -12 154 -12 c 0
462 -102 m 0
 462 -17 418 16 332 16 c 0
 314 16 295 14 275 12 c 0
 275 9 275 7 275 4 c 0
 275 -131 325 -230 374 -289 c 1
 430 -245 462 -175 462 -102 c 0
EndSplineSet
Validated: 1
EndChar

StartChar: mime_zoos
Encoding: 1114120 -1 30
Width: 0
VWidth: 0
Flags: H
LayerCount: 2
Fore
SplineSet
616 521 m 0
 751 521 845 464 845 325 c 0
 845 238 794 155 746 72 c 0
 693 -20 645 -102 645 -186 c 0
 645 -238 656 -290 704 -290 c 0
 718 -290 732 -284 749 -268 c 0
 766 -252 785 -226 802 -194 c 0
 836 -130 865 -42 888 45 c 0
 892 61 907 73 924 73 c 0
 946 73 961 56 961 36 c 0
 961 33 961 29 960 26 c 0
 936 -64 906 -156 867 -229 c 0
 848 -266 826 -298 800 -322 c 0
 774 -346 741 -364 704 -364 c 0
 614 -364 571 -280 571 -188 c 0
 571 -74 629 16 682 109 c 0
 730 193 771 271 771 327 c 0
 771 423 711 447 618 447 c 0
 578 447 535 442 496 438 c 0
 378 426 250 310 224 88 c 1
 240 90 256 90 271 90 c 0
 398 90 481 25 481 -103 c 0
 481 -211 428 -314 332 -369 c 0
 327 -372 320 -374 313 -374 c 0
 303 -374 294 -370 287 -363 c 0
 220 -296 147 -173 146 -1 c 1
 134 -4 121 -6 110 -10 c 0
 107 -11 103 -12 99 -12 c 0
 80 -12 62 3 62 25 c 0
 62 42 73 55 88 60 c 0
 107 66 128 71 149 76 c 1
 173 337 324 496 488 512 c 0
 526 516 570 521 616 521 c 0
407 -102 m 0
 407 -17 363 16 277 16 c 0
 259 16 240 14 220 12 c 0
 220 9 220 7 220 4 c 0
 220 -131 270 -230 319 -289 c 1
 375 -245 407 -175 407 -102 c 0
EndSplineSet
Validated: 1
EndChar

StartChar: nine
Encoding: 57 57 31
Width: 1000
Flags: H
LayerCount: 2
Fore
SplineSet
472 874 m 0
 576 874 662 849 711 775 c 0
 715 768 715 763 717 755 c 1
 717 25 l 2
 717 5 700 -12 680 -12 c 0
 660 -12 644 5 644 25 c 2
 644 450 l 1
 603 398 541 362 458 362 c 0
 328 362 226 471 226 618 c 0
 226 766 335 874 472 874 c 0
472 800 m 0
 372 800 300 732 300 618 c 0
 300 503 367 436 458 436 c 0
 539 436 578 470 606 528 c 0
 633 583 642 663 643 743 c 1
 611 784 559 800 472 800 c 0
EndSplineSet
Validated: 1
EndChar

StartChar: nun
Encoding: 58982 58982 32
Width: 1000
Flags: H
LayerCount: 2
Fore
SplineSet
667 512 m 0
 687 512 704 497 704 475 c 0
 704 458 693 443 677 439 c 0
 643 430 601 413 561 390 c 1
 611 339 649 269 649 182 c 0
 649 125 638 78 612 43 c 0
 586 8 545 -12 501 -12 c 0
 457 -12 415 8 389 43 c 0
 363 78 353 125 353 182 c 0
 353 269 391 339 441 390 c 1
 401 413 359 430 325 439 c 0
 309 443 298 458 298 475 c 0
 298 496 315 512 335 512 c 0
 338 512 341 512 344 511 c 0
 390 499 448 476 501 440 c 1
 554 476 611 499 657 511 c 0
 660 512 664 512 667 512 c 0
501 346 m 1
 457 305 426 253 426 182 c 0
 426 135 436 103 449 86 c 0
 462 69 476 62 501 62 c 0
 526 62 539 69 552 86 c 0
 565 103 575 135 575 182 c 0
 575 253 545 305 501 346 c 1
EndSplineSet
Validated: 1
EndChar

StartChar: nun_nun_nun
Encoding: 1114121 -1 33
Width: 0
VWidth: 0
Flags: H
LayerCount: 2
Fore
SplineSet
-173 475 m 0
 -173 497 -156 512 -136 512 c 0
 -133 512 -129 512 -126 511 c 0
 -80 499 -23 476 30 440 c 1
 100 487 184 512 265 512 c 0
 346 512 430 486 499 440 c 1
 568 486 652 512 733 512 c 0
 814 512 899 487 968 440 c 1
 1021 476 1078 499 1124 511 c 0
 1127 512 1131 512 1134 512 c 0
 1154 512 1171 497 1171 475 c 0
 1171 458 1160 443 1144 439 c 0
 1110 430 1068 414 1028 390 c 1
 1081 336 1116 265 1116 182 c 0
 1116 125 1105 78 1079 43 c 0
 1053 8 1012 -12 968 -12 c 0
 924 -12 882 8 856 43 c 0
 830 78 820 125 820 182 c 0
 820 269 858 339 908 390 c 1
 855 420 791 438 733 438 c 0
 675 438 612 421 559 391 c 1
 612 337 648 265 648 182 c 0
 648 125 637 78 611 43 c 0
 585 8 544 -12 500 -12 c 0
 456 -12 414 8 388 43 c 0
 362 78 351 125 351 182 c 0
 351 265 386 337 439 391 c 1
 386 421 323 438 265 438 c 0
 207 438 144 421 91 390 c 1
 141 339 179 269 179 182 c 0
 179 125 168 78 142 43 c 0
 116 8 75 -12 31 -12 c 0
 -13 -12 -55 8 -81 43 c 0
 -107 78 -117 125 -117 182 c 0
 -117 265 -82 336 -29 390 c 1
 -69 414 -111 430 -145 439 c 0
 -161 443 -173 458 -173 475 c 0
499 346 m 1
 453 303 425 248 425 182 c 0
 425 135 435 103 448 86 c 0
 461 69 475 62 500 62 c 0
 525 62 538 69 551 86 c 0
 564 103 574 135 574 182 c 0
 574 248 545 303 499 346 c 1
968 346 m 1
 924 305 894 253 894 182 c 0
 894 135 903 103 916 86 c 0
 929 69 943 62 968 62 c 0
 993 62 1007 69 1020 86 c 0
 1033 103 1042 135 1042 182 c 0
 1042 248 1014 303 968 346 c 1
31 346 m 1
 -15 303 -44 248 -44 182 c 0
 -44 135 -34 103 -21 86 c 0
 -8 69 6 62 31 62 c 0
 56 62 69 69 82 86 c 0
 95 103 105 135 105 182 c 0
 105 253 75 305 31 346 c 1
EndSplineSet
Validated: 1
EndChar

StartChar: oak
Encoding: 59004 59004 34
Width: 1000
Flags: H
LayerCount: 2
Fore
SplineSet
423 512 m 0
 443 512 460 497 460 475 c 0
 460 459 449 445 435 440 c 0
 370 418 334 336 334 250 c 0
 334 147 389 62 502 62 c 0
 615 62 671 147 671 250 c 0
 671 336 635 418 570 440 c 0
 556 445 545 459 545 475 c 0
 545 497 563 512 582 512 c 0
 586 512 590 511 594 510 c 0
 690 477 745 371 745 250 c 0
 745 193 730 130 691 78 c 0
 652 26 587 -12 502 -12 c 0
 417 -12 353 26 314 78 c 0
 275 130 260 193 260 250 c 0
 260 371 315 477 411 510 c 0
 415 511 419 512 423 512 c 0
EndSplineSet
Validated: 1
EndChar

StartChar: oil
Encoding: 59001 59001 35
Width: 1000
Flags: H
LayerCount: 2
Fore
SplineSet
511 524 m 0
 531 524 547 508 547 488 c 0
 547 472 547 457 546 443 c 1
 566 430 587 414 606 394 c 0
 675 322 727 204 727 25 c 0
 727 5 710 -12 690 -12 c 0
 670 -12 653 5 653 25 c 0
 653 190 607 287 553 343 c 0
 547 350 540 355 533 361 c 1
 528 341 521 324 512 308 c 0
 487 264 441 238 393 238 c 0
 324 238 272 298 272 364 c 0
 272 430 324 491 393 491 c 0
 417 491 444 487 473 478 c 1
 473 481 474 485 474 488 c 0
 474 508 491 524 511 524 c 0
393 417 m 0
 366 417 346 393 346 364 c 0
 346 335 366 312 393 312 c 0
 420 312 433 320 448 345 c 0
 456 358 462 376 467 401 c 1
 439 412 413 417 393 417 c 0
EndSplineSet
Validated: 1
EndChar

StartChar: one
Encoding: 49 49 36
Width: 1000
Flags: H
LayerCount: 2
Fore
SplineSet
338 659 m 0
 318 659 301 675 301 696 c 0
 301 707 306 718 314 725 c 2
 484 866 l 2
 490 871 498 874 508 874 c 0
 530 874 545 857 545 837 c 2
 545 73 l 1
 681 73 l 2
 701 73 718 57 718 37 c 0
 718 17 701 0 681 -0 c 0
 562 0 443 0 324 -0 c 0
 304 0 287 17 287 37 c 0
 287 57 304 73 324 73 c 2
 471 73 l 1
 471 759 l 1
 361 668 l 2
 355 663 347 659 338 659 c 0
EndSplineSet
Validated: 1
EndChar

StartChar: pipe
Encoding: 58960 58960 37
Width: 1000
Flags: H
LayerCount: 2
Fore
SplineSet
522 796 m 1
 521 795 509 800 498 800 c 0
 485 800 474 795 460 780 c 0
 446 765 431 739 419 708 c 0
 395 645 381 558 381 475 c 0
 381 455 364 438 344 438 c 0
 324 438 307 455 307 475 c 0
 307 610 337 756 406 830 c 0
 430 856 462 874 498 874 c 0
 518 874 539 872 559 860 c 0
 579 848 596 821 596 793 c 2
 596 25 l 2
 596 5 579 -12 559 -12 c 0
 539 -12 522 5 522 25 c 2
 522 793 l 2
 522 795 522 796 522 796 c 1
EndSplineSet
Validated: 1
EndChar

StartChar: qsbracketleft
Encoding: 58990 58990 38
Width: 1000
Flags: H
LayerCount: 2
Fore
SplineSet
661 874 m 0
 683 874 698 856 698 837 c 0
 698 833 697 829 696 826 c 2
 346 -300 l 1
 661 -300 l 2
 681 -300 698 -317 698 -337 c 0
 698 -357 681 -374 661 -374 c 2
 296 -374 l 2
 276 -374 259 -357 259 -337 c 0
 259 -333 259 -329 260 -326 c 2
 626 848 l 2
 631 863 644 874 661 874 c 0
EndSplineSet
Validated: 1
EndChar

StartChar: question
Encoding: 63 63 39
Width: 1000
Flags: H
LayerCount: 2
Fore
SplineSet
364 718 m 0
 342 718 327 735 327 754 c 0
 327 758 329 763 330 767 c 0
 342 801 360 829 387 848 c 0
 414 867 446 874 482 874 c 0
 522 874 562 860 587 827 c 0
 612 794 622 750 622 690 c 0
 622 608 572 543 530 486 c 0
 488 429 453 378 453 337 c 0
 453 309 462 290 483 290 c 0
 491 290 497 291 501 293 c 0
 505 295 510 297 516 312 c 0
 521 326 534 335 550 335 c 0
 572 335 587 318 587 299 c 0
 587 294 587 289 585 285 c 0
 568 242 532 216 483 216 c 0
 420 216 379 271 379 337 c 0
 379 414 429 474 471 530 c 0
 513 586 548 639 548 690 c 0
 548 741 539 770 529 783 c 0
 519 796 508 800 482 800 c 0
 456 800 440 796 429 788 c 0
 418 780 408 767 399 742 c 0
 394 728 380 718 364 718 c 0
EndSplineSet
Validated: 1
EndChar

StartChar: roar
Encoding: 58984 58984 40
Width: 1000
Flags: H
LayerCount: 2
Fore
SplineSet
322 475 m 0
 322 509 354 514 389 514 c 0
 534 514 633 405 633 250 c 0
 633 95 534 -14 389 -14 c 0
 354 -14 322 -9 322 25 c 0
 322 46 339 62 359 62 c 0
 369 62 378 60 388 60 c 0
 424 60 463 70 494 94 c 0
 531 123 560 170 560 250 c 0
 560 330 531 377 494 406 c 0
 463 430 424 440 388 440 c 0
 378 440 369 438 359 438 c 0
 339 438 322 454 322 475 c 0
EndSplineSet
Validated: 1
EndChar

StartChar: seven
Encoding: 55 55 41
Width: 1000
Flags: H
LayerCount: 2
Fore
SplineSet
422 -12 m 0
 400 -12 385 6 385 25 c 0
 385 30 386 35 388 39 c 2
 704 789 l 1
 269 789 l 2
 249 789 232 806 232 826 c 0
 232 846 249 863 269 863 c 2
 760 863 l 2
 780 863 797 846 797 826 c 0
 797 821 796 815 794 811 c 2
 456 11 l 2
 450 -2 437 -12 422 -12 c 0
EndSplineSet
Validated: 1
EndChar

StartChar: shush
Encoding: 58972 58972 42
Width: 1000
Flags: H
LayerCount: 2
Fore
SplineSet
647 62 m 0
 667 62 684 46 684 25 c 0
 684 6 670 -10 651 -12 c 0
 599 -17 579 -18 537 -18 c 0
 435 -18 373 33 345 90 c 0
 320 142 318 195 318 224 c 0
 318 386 403 573 605 859 c 0
 611 868 621 874 635 874 c 0
 656 874 672 857 672 837 c 0
 672 829 669 822 665 816 c 0
 469 538 392 356 392 231 c 0
 392 134 415 56 537 56 c 0
 578 56 593 57 643 62 c 0
 644 62 646 62 647 62 c 0
EndSplineSet
Validated: 1
EndChar

StartChar: sis
Encoding: 58970 58970 43
Width: 1000
Flags: H
LayerCount: 2
Fore
SplineSet
406 651 m 0
 406 777 475 874 586 874 c 0
 606 874 622 857 622 837 c 0
 622 817 606 800 586 800 c 0
 563 800 537 791 517 770 c 0
 497 749 480 712 480 651 c 0
 480 595 510 545 545 484 c 0
 580 423 620 352 620 260 c 0
 620 176 609 111 579 63 c 0
 549 15 497 -12 438 -12 c 0
 418 -12 401 5 401 25 c 0
 401 45 418 62 438 62 c 0
 479 62 498 72 516 101 c 0
 534 130 546 183 546 260 c 0
 546 410 406 498 406 651 c 0
EndSplineSet
Validated: 1
EndChar

StartChar: six
Encoding: 54 54 44
Width: 1000
Flags: H
LayerCount: 2
Fore
SplineSet
770 250 m 0
 770 103 670 -12 518 -12 c 0
 418 -12 343 43 301 125 c 0
 259 207 244 313 244 431 c 0
 244 550 263 658 309 739 c 0
 355 820 434 874 535 874 c 0
 581 874 646 866 708 823 c 0
 718 816 724 806 724 793 c 0
 724 772 707 756 687 756 c 0
 679 756 672 759 666 763 c 0
 620 795 574 800 535 800 c 0
 459 800 411 766 374 702 c 0
 338 639 319 546 318 439 c 1
 392 496 467 512 522 512 c 0
 587 512 649 492 696 448 c 0
 743 404 770 336 770 250 c 0
518 62 m 0
 631 62 696 142 696 250 c 0
 696 321 675 366 645 395 c 0
 615 424 572 438 522 438 c 0
 469 438 395 424 321 343 c 1
 328 269 343 205 367 159 c 0
 400 95 443 62 518 62 c 0
EndSplineSet
Validated: 1
EndChar

StartChar: three
Encoding: 51 51 46
Width: 1000
Flags: H
LayerCount: 2
Fore
SplineSet
273 725 m 0
 252 725 236 742 236 762 c 0
 236 771 240 780 245 786 c 0
 298 849 377 874 454 874 c 0
 510 874 569 865 618 833 c 0
 667 801 701 742 701 664 c 0
 701 576 663 510 597 475 c 1
 615 466 630 455 644 442 c 0
 695 394 712 326 712 248 c 0
 712 92 599 -12 448 -12 c 0
 325 -12 260 52 237 73 c 0
 230 80 225 89 225 100 c 0
 225 121 242 137 262 137 c 0
 272 137 279 134 286 128 c 0
 315 102 348 62 448 62 c 0
 561 62 639 131 639 248 c 0
 639 315 626 359 594 388 c 0
 562 417 505 437 407 438 c 0
 387 438 371 455 371 475 c 0
 371 495 387 512 407 512 c 0
 486 513 544 526 577 549 c 0
 610 572 627 604 627 664 c 0
 627 723 608 751 578 771 c 0
 548 791 502 800 454 800 c 0
 393 800 337 780 302 738 c 0
 295 730 284 725 273 725 c 0
EndSplineSet
Validated: 1
EndChar

StartChar: tut
Encoding: 58962 58962 47
Width: 1000
Flags: H
LayerCount: 2
Fore
SplineSet
509 874 m 0
 529 874 545 857 545 837 c 2
 545 25 l 2
 545 5 529 -12 509 -12 c 0
 489 -12 472 5 472 25 c 2
 472 837 l 2
 472 857 489 874 509 874 c 0
EndSplineSet
Validated: 1
EndChar

StartChar: two
Encoding: 50 50 48
Width: 1000
Flags: H
LayerCount: 2
Fore
SplineSet
315 708 m 0
 294 708 278 725 278 745 c 0
 278 754 282 762 288 769 c 0
 346 835 407 874 516 874 c 0
 584 874 646 855 689 811 c 0
 732 767 754 701 754 618 c 0
 754 489 678 372 588 269 c 0
 524 196 453 129 394 73 c 1
 739 73 l 2
 759 73 776 57 776 37 c 0
 776 17 759 0 739 -0 c 2
 303 -0 l 2
 283 0 266 17 266 37 c 0
 266 47 269 55 276 62 c 0
 345 132 447 220 532 317 c 0
 617 414 681 519 681 618 c 0
 681 688 663 732 636 759 c 0
 609 786 571 800 516 800 c 0
 421 800 396 781 343 720 c 0
 336 712 326 708 315 708 c 0
EndSplineSet
Validated: 1
EndChar

StartChar: valve
Encoding: 58969 58969 49
Width: 1000
Flags: H
LayerCount: 2
Fore
SplineSet
709 62 m 0
 731 62 746 45 746 25 c 0
 746 22 746 18 745 15 c 0
 720 -79 692 -170 656 -242 c 0
 638 -278 618 -310 593 -334 c 0
 568 -358 536 -374 500 -374 c 0
 415 -374 376 -294 359 -221 c 0
 345 -160 339 -87 338 -11 c 1
 329 -11 321 -12 312 -12 c 0
 292 -12 275 5 275 25 c 0
 275 45 292 62 312 62 c 0
 321 62 329 63 338 63 c 1
 340 176 356 283 389 366 c 0
 416 435 465 512 554 512 c 0
 643 512 699 426 699 338 c 0
 699 225 659 132 591 73 c 0
 544 32 484 8 412 -4 c 1
 413 -80 418 -151 431 -204 c 0
 439 -239 451 -265 463 -280 c 0
 475 -295 484 -300 500 -300 c 0
 514 -300 526 -295 542 -280 c 0
 558 -265 574 -240 590 -209 c 0
 621 -146 649 -57 674 35 c 0
 678 51 692 62 709 62 c 0
625 337 m 0
 625 384 600 438 554 438 c 0
 536 438 521 431 504 415 c 0
 487 399 471 372 457 338 c 0
 430 270 414 173 412 71 c 1
 467 82 511 101 543 129 c 0
 592 172 625 240 625 337 c 0
EndSplineSet
Validated: 1
EndChar

StartChar: whitewheat
Encoding: 58979 58979 50
Width: 1000
Flags: H
LayerCount: 2
Fore
SplineSet
760 512 m 0
 782 512 797 495 797 475 c 0
 797 469 795 464 793 459 c 2
 389 -354 l 2
 383 -366 370 -374 356 -374 c 0
 336 -374 319 -357 319 -337 c 0
 319 -325 322 -314 322 -301 c 0
 322 -253 309 -193 287 -141 c 0
 259 -77 216 -24 181 -9 c 0
 168 -3 159 10 159 25 c 0
 159 47 177 62 196 62 c 0
 201 62 205 61 210 59 c 0
 298 21 358 -90 384 -199 c 1
 727 491 l 2
 733 503 746 512 760 512 c 0
EndSplineSet
Validated: 1
EndChar

StartChar: winwin
Encoding: 58977 58977 51
Width: 1000
Flags: H
LayerCount: 2
Fore
SplineSet
670 512 m 0
 692 512 707 495 707 475 c 0
 707 469 706 464 704 459 c 2
 300 -354 l 2
 294 -366 281 -374 267 -374 c 0
 245 -374 230 -356 230 -337 c 0
 230 -331 232 -326 234 -321 c 2
 637 491 l 2
 643 503 656 512 670 512 c 0
EndSplineSet
Validated: 1
EndChar

StartChar: wool
Encoding: 59005 59005 52
Width: 1000
Flags: H
LayerCount: 2
Fore
SplineSet
272 512 m 0
 292 512 309 495 309 475 c 0
 309 347 353 169 427 96 c 0
 450 73 473 62 499 62 c 0
 525 62 548 73 571 96 c 0
 644 169 689 347 689 475 c 0
 689 495 706 512 726 512 c 0
 746 512 763 495 763 475 c 0
 763 324 711 131 623 44 c 0
 590 11 547 -12 499 -12 c 0
 451 -12 408 11 375 44 c 0
 287 131 235 323 235 475 c 0
 235 495 252 512 272 512 c 0
EndSplineSet
Validated: 1
EndChar

StartChar: yoyo
Encoding: 58976 58976 53
Width: 1000
Flags: H
LayerCount: 2
Fore
SplineSet
553 874 m 0
 587 874 622 859 644 829 c 0
 666 799 677 757 677 705 c 0
 677 632 652 565 605 516 c 0
 578 488 544 466 504 453 c 1
 504 25 l 2
 504 5 487 -12 467 -12 c 0
 447 -12 430 5 430 25 c 2
 430 439 l 1
 424 439 417 438 411 438 c 0
 391 438 374 455 374 475 c 0
 374 495 391 512 411 512 c 0
 418 512 424 513 430 513 c 1
 430 660 l 2
 430 728 439 777 459 814 c 0
 479 851 516 874 553 874 c 0
504 532 m 1
 563 561 603 623 603 705 c 0
 603 747 594 773 585 785 c 0
 576 797 568 800 553 800 c 0
 540 800 535 799 524 779 c 0
 513 759 504 721 504 660 c 2
 504 532 l 1
EndSplineSet
Validated: 1
EndChar

StartChar: yoyo_ooze
Encoding: 1114122 -1 54
Width: 0
VWidth: 0
Flags: H
LayerCount: 2
Fore
SplineSet
508 722 m 0
 508 624 416 506 336 463 c 1
 336 259 l 1
 365 331 401 404 447 454 c 0
 478 487 515 512 560 512 c 0
 642 512 708 447 753 359 c 0
 798 271 824 153 824 25 c 0
 824 5 807 -12 787 -12 c 0
 767 -12 750 5 750 25 c 0
 750 143 725 251 687 326 c 0
 649 401 601 438 560 438 c 0
 543 438 524 428 501 404 c 0
 478 380 455 342 434 299 c 0
 392 212 357 101 334 15 c 0
 330 -1 316 -12 299 -12 c 0
 279 -12 262 5 262 25 c 2
 262 439 l 1
 256 438 248 438 242 438 c 0
 222 438 206 455 206 475 c 0
 206 495 222 512 242 512 c 0
 248 512 256 513 262 514 c 1
 262 660 l 2
 262 728 270 777 290 814 c 0
 310 851 348 874 385 874 c 0
 463 874 508 805 508 722 c 0
385 800 m 0
 372 800 366 799 355 779 c 0
 344 759 336 721 336 660 c 2
 336 553 l 1
 349 564 361 577 373 591 c 0
 411 637 434 697 434 722 c 0
 434 754 426 774 417 785 c 0
 408 796 399 800 385 800 c 0
EndSplineSet
Validated: 1
EndChar

StartChar: zero
Encoding: 48 48 55
Width: 1000
Flags: H
LayerCount: 2
Fore
SplineSet
504 874 m 0
 588 874 658 823 699 744 c 0
 740 665 760 558 760 431 c 0
 760 304 740 198 699 119 c 0
 658 40 588 -12 504 -12 c 0
 420 -12 350 40 309 119 c 0
 268 198 248 304 248 431 c 0
 248 558 268 665 309 744 c 0
 350 823 420 874 504 874 c 0
504 800 m 0
 448 800 407 772 374 709 c 0
 341 646 322 550 322 431 c 0
 322 312 341 216 374 153 c 0
 407 90 448 62 504 62 c 0
 560 62 600 90 633 153 c 0
 666 216 686 312 686 431 c 0
 686 550 666 646 633 709 c 0
 600 772 560 800 504 800 c 0
EndSplineSet
Validated: 1
EndChar

StartChar: zhivago
Encoding: 58973 58973 56
Width: 1000
Flags: H
LayerCount: 2
Fore
SplineSet
448 438 m 0
 428 438 411 454 411 475 c 0
 411 494 425 510 444 512 c 0
 496 517 516 518 558 518 c 0
 660 518 722 467 750 410 c 0
 776 358 777 303 777 274 c 0
 777 272 777 270 777 268 c 0
 777 206 760 135 733 62 c 1
 737 62 742 62 746 62 c 0
 766 62 783 45 783 25 c 0
 783 5 766 -12 746 -12 c 0
 731 -12 717 -12 702 -13 c 1
 659 -110 594 -224 538 -295 c 0
 521 -316 506 -334 490 -348 c 0
 474 -362 460 -374 433 -374 c 0
 413 -374 396 -370 382 -362 c 0
 368 -354 362 -346 357 -341 c 0
 338 -323 340 -310 338 -295 c 0
 337 -287 336 -279 336 -269 c 0
 336 -217 345 -173 371 -128 c 0
 438 -12 545 37 650 54 c 1
 682 134 703 213 703 268 c 0
 703 365 680 444 558 444 c 0
 517 444 502 443 452 438 c 0
 451 438 449 438 448 438 c 0
614 -28 m 1
 524 -53 410 -131 410 -268 c 0
 410 -278 411 -288 414 -293 c 0
 416 -295 420 -299 420 -299 c 1
 420 -299 421 -300 429 -300 c 1
 428 -300 434 -298 441 -292 c 0
 451 -283 465 -268 480 -249 c 0
 521 -197 578 -104 614 -28 c 1
EndSplineSet
Validated: 1
EndChar

StartChar: zoos
Encoding: 58971 58971 57
Width: 1000
Flags: H
LayerCount: 2
Fore
SplineSet
367 427 m 0
 347 427 330 442 330 464 c 0
 330 481 342 496 358 500 c 0
 384 506 413 512 463 512 c 0
 504 512 548 501 583 470 c 0
 618 439 639 388 639 323 c 0
 639 233 587 148 538 62 c 0
 486 -29 439 -113 439 -197 c 0
 439 -249 450 -300 498 -300 c 0
 512 -300 526 -294 543 -278 c 0
 560 -262 579 -237 596 -205 c 0
 630 -141 659 -52 682 35 c 0
 686 51 701 62 718 62 c 0
 740 62 755 45 755 25 c 0
 755 22 755 18 754 15 c 0
 730 -75 700 -167 661 -240 c 0
 642 -277 620 -309 594 -333 c 0
 568 -357 535 -374 498 -374 c 0
 408 -374 365 -291 365 -199 c 0
 365 -86 421 5 473 98 c 0
 522 184 565 265 565 323 c 0
 565 374 551 399 534 415 c 0
 517 431 492 438 463 438 c 0
 417 438 399 434 375 428 c 0
 372 427 370 427 367 427 c 0
EndSplineSet
Validated: 1
EndChar

